<?xml version="1.0" encoding="utf-8"?>
<svg viewBox="0 0 500 670" xmlns="http://www.w3.org/2000/svg">
  <path style="fill: rgb(216, 216, 216); stroke: rgb(0, 0, 0);" d="M 159.492 218.461 L 157.582 213.112 C 157.582 213.112 157.582 213.112 157.582 206.616 C 157.582 200.12 158.346 166.498 161.403 162.295 C 164.46 158.092 171.719 138.606 181.271 133.257 C 190.823 127.908 210.308 113.007 230.559 107.658 C 250.81 102.309 262.271 103.837 270.295 104.984 C 278.319 106.131 300.479 111.861 304.682 114.536 C 308.885 117.211 327.988 129.819 328.37 132.493 C 328.752 135.167 334.866 139.753 337.54 146.248 C 340.214 152.743 338.304 154.654 338.304 155.8 C 338.304 156.946 347.474 155.418 352.823 160.767 C 358.172 166.116 360.083 169.937 361.993 175.286 C 363.903 180.635 371.163 192.861 369.253 199.357 C 367.343 205.853 370.017 209.673 367.342 219.989 C 364.667 230.305 360.083 228.31 357.408 233.659 C 354.733 239.008 352.823 235.951 352.059 238.626 C 351.295 241.301 352.059 242.447 350.913 247.796 C 349.767 253.145 348.62 253.909 348.62 258.876 C 348.62 263.843 349.003 273.777 348.238 278.744 C 347.473 283.711 349.767 288.678 345.946 290.588 C 342.125 292.498 336.394 293.645 335.63 288.678 C 334.866 283.711 332.573 303.579 332.573 305.107 C 332.573 306.635 325.314 324.593 321.875 327.268 C 318.436 329.943 314.616 331.853 313.851 336.82 C 313.086 341.787 310.413 345.65 310.413 349.089 C 310.413 352.528 337.922 367.048 340.979 367.43 C 344.036 367.812 365.814 375.836 371.927 378.128 C 378.04 380.42 404.786 390.737 412.427 391.119 C 420.068 391.501 444.522 402.963 447.961 402.963 C 451.4 402.963 453.31 406.784 453.31 412.133 C 453.31 417.482 453.31 417.44 453.31 445.331 C 453.31 473.222 452.546 641.125 452.164 645.71 C 451.782 650.295 187.766 647.238 180.124 647.62 C 172.482 648.002 44.869 650.677 46.397 646.856 C 47.925 643.035 47.161 417.992 47.161 415.317 C 47.161 412.642 45.252 410.181 66.648 404.832 C 88.044 399.483 81.166 397.573 92.247 394.134 C 103.328 390.695 98.742 391.841 110.204 389.167 C 121.666 386.493 122.049 382.29 130.454 377.705 C 138.859 373.12 143.827 373.884 154.908 363.95 C 165.989 354.016 187.002 339.497 186.62 330.327 C 186.238 321.157 186.621 333.384 182.035 316.572 C 177.449 299.76 175.921 304.346 176.303 292.501 C 176.685 280.656 177.068 277.218 173.63 279.892 C 170.192 282.566 174.011 282.185 169.808 282.185 C 165.605 282.185 164.842 281.803 163.695 275.308 C 162.548 268.813 163.313 268.43 163.313 261.553 C 163.313 254.676 164.077 252.383 162.931 245.124 C 161.785 237.865 159.11 237.864 157.582 234.043 C 156.054 230.222 156.436 228.694 157.582 224.109 C 158.728 219.524 157.964 219.524 159.492 218.461 Z"/>
</svg>